<svg width="42" height="41" viewBox="0 0 42 41" fill="none" xmlns="http://www.w3.org/2000/svg">
<g clip-path="url(#clip0_29_1432)">
<path d="M21.0002 0C9.40357 0 0 9.39835 0 20.9922C0 30.267 6.01716 38.1359 14.3612 40.9116C15.4107 41.1059 15.7961 40.4562 15.7961 39.9017C15.7961 39.4012 15.7764 37.7476 15.7676 35.9936C9.92529 37.2633 8.69252 33.5167 8.69252 33.5167C7.73719 31.0903 6.3607 30.445 6.3607 30.445C4.45545 29.1421 6.50442 29.169 6.50442 29.169C8.61312 29.317 9.72349 31.3322 9.72349 31.3322C11.5966 34.5414 14.6363 33.6136 15.8347 33.0772C16.0232 31.7206 16.5674 30.7943 17.168 30.2701C12.5035 29.7394 7.6002 27.9394 7.6002 19.8958C7.6002 17.6039 8.42051 15.7312 9.76385 14.2611C9.54581 13.7324 8.82705 11.5974 9.96729 8.70578C9.96729 8.70578 11.7308 8.14162 15.7439 10.8576C17.419 10.3925 19.2155 10.1593 21.0002 10.1513C22.7848 10.1593 24.5828 10.3924 26.261 10.8576C30.2692 8.14178 32.0303 8.70594 32.0303 8.70594C33.1733 11.5973 32.4542 13.7325 32.2361 14.2611C33.5826 15.7312 34.3973 17.6039 34.3973 19.8958C34.3973 27.9586 29.4847 29.7339 24.8084 30.2536C25.5616 30.905 26.2328 32.1825 26.2328 34.141C26.2328 36.9497 26.2085 39.2103 26.2085 39.9017C26.2085 40.4604 26.5865 41.115 27.6509 40.9087C35.9904 38.13 42 30.2641 42 20.9923C42 9.39835 32.5977 0 21.0002 0ZM7.86532 29.9038C7.81906 30.0081 7.65483 30.0394 7.50537 29.9677C7.35295 29.8993 7.26748 29.7571 7.3167 29.6525C7.36198 29.5451 7.52653 29.5151 7.67845 29.5871C7.83103 29.6556 7.91798 29.7991 7.86532 29.9038ZM8.89826 30.8251C8.79818 30.9179 8.60229 30.8748 8.4694 30.7282C8.33208 30.5819 8.30632 30.3861 8.40788 30.2919C8.51123 30.1991 8.70105 30.2426 8.8387 30.3889C8.97619 30.537 9.00277 30.7313 8.89826 30.8251ZM9.60701 32.0039C9.47822 32.0933 9.26789 32.0095 9.13779 31.8229C9.00916 31.6363 9.00916 31.4124 9.14058 31.3227C9.27101 31.233 9.47822 31.3137 9.60996 31.499C9.73826 31.6887 9.73826 31.9126 9.60684 32.0041L9.60701 32.0039ZM10.8053 33.3692C10.6903 33.4962 10.445 33.4621 10.2656 33.2889C10.082 33.1196 10.0309 32.8795 10.1464 32.7526C10.2629 32.6253 10.5095 32.6611 10.6903 32.833C10.8724 33.0019 10.9282 33.2438 10.8053 33.3692ZM12.3544 33.8301C12.3035 33.9946 12.0673 34.0694 11.8296 33.9995C11.592 33.9275 11.4366 33.735 11.4845 33.5688C11.5339 33.4032 11.7712 33.3255 12.0107 33.4002C12.2479 33.4717 12.4038 33.6628 12.3544 33.8301ZM14.1171 34.0257C14.123 34.1988 13.9214 34.3423 13.6717 34.3455C13.4206 34.3511 13.2174 34.2111 13.2146 34.0405C13.2146 33.8658 13.4118 33.7236 13.663 33.7194C13.9127 33.7145 14.1171 33.8535 14.1171 34.0257ZM15.8488 33.9593C15.8786 34.1282 15.7052 34.3017 15.4571 34.348C15.2135 34.3924 14.9878 34.2881 14.9568 34.1207C14.9266 33.9475 15.1033 33.774 15.3466 33.7292C15.595 33.6861 15.8171 33.7876 15.8488 33.9593Z" fill="#10B981"/>
</g>
<defs>
<clipPath id="clip0_29_1432">
<rect width="42" height="41" fill="white"/>
</clipPath>
</defs>
</svg>
