<svg width="41" height="41" viewBox="0 0 41 41" fill="none" xmlns="http://www.w3.org/2000/svg">
<g clip-path="url(#clip0_29_1434)">
<path d="M34.9337 34.9345H28.8588V25.4207C28.8588 23.1521 28.8183 20.2317 25.6992 20.2317C22.5352 20.2317 22.051 22.7035 22.051 25.2556V34.9339H15.9763V15.3698H21.8081V18.0435H21.8898C22.4734 17.0455 23.3167 16.2246 24.33 15.6681C25.3433 15.1115 26.4886 14.8402 27.6438 14.8831C33.8011 14.8831 34.9362 18.9331 34.9362 24.202L34.9337 34.9345ZM9.12162 12.6957C7.1746 12.696 5.59594 11.1178 5.59561 9.17081C5.59529 7.22379 7.17331 5.64513 9.12033 5.64481C11.0674 5.64433 12.646 7.22251 12.6463 9.16953C12.6465 10.1045 12.2753 11.0013 11.6142 11.6626C10.9532 12.3239 10.0566 12.6955 9.12162 12.6957ZM12.1591 34.9347H6.07785V15.3698H12.159V34.9345L12.1591 34.9347ZM37.9622 0.00298401H3.02527C1.37406 -0.0155941 0.0199355 1.30714 -0.000244141 2.95835V38.0411C0.0192949 39.6931 1.37326 41.0171 3.02511 40.9998H37.9622C39.6176 41.0203 40.9769 39.6963 40.9998 38.0411V2.95562C40.9762 1.30121 39.6168 -0.0213597 37.9622 0.000261358" fill="#10B981"/>
</g>
<defs>
<clipPath id="clip0_29_1434">
<rect width="41" height="41" fill="white"/>
</clipPath>
</defs>
</svg>
