<svg xmlns="http://www.w3.org/2000/svg" viewBox="0 0 372.63 70.87"><defs><style>.cls-1{fill:#00b451;}.cls-2{fill:#fff;}.cls-3{fill:#1d1d1b;}</style></defs><g id="Capa_2" data-name="Capa 2"><g id="Capa_1-2" data-name="Capa 1"><rect class="cls-1" width="70.87" height="70.87" rx="6.46"/><path class="cls-2" d="M43.27,21.82v-4a3.48,3.48,0,0,0-3.48-3.48H11a3.48,3.48,0,0,0-3.48,3.48V33.32A3.48,3.48,0,0,0,11,36.8h3.88V25.29a3.46,3.46,0,0,1,3.46-3.47Z"/><path class="cls-2" d="M53,31.75v-4a3.48,3.48,0,0,0-3.48-3.48H20.7a3.48,3.48,0,0,0-3.48,3.48V43.25a3.48,3.48,0,0,0,3.48,3.49h3.88V35.22a3.47,3.47,0,0,1,3.47-3.47Z"/><rect class="cls-2" x="27.06" y="34.23" width="35.79" height="22.48" rx="3.67"/><path class="cls-3" d="M90.79,58.24v-45H99.5v45Zm6.4-18.77V32.61h10.38a7,7,0,0,0,5-1.63,5.84,5.84,0,0,0,1.73-4.45,6.1,6.1,0,0,0-1.73-4.45,6.58,6.58,0,0,0-4.93-1.76H97.19V13.21h11.28a16.38,16.38,0,0,1,7.59,1.69,12.4,12.4,0,0,1,7,11.44,12.65,12.65,0,0,1-1.83,6.88A12.43,12.43,0,0,1,116,37.8a17.14,17.14,0,0,1-7.75,1.67Zm18.2,18.77L100.46,38.76l8.07-2.49,17.43,22Z"/><path class="cls-3" d="M144,58.94a17.57,17.57,0,0,1-8.68-2.11,15.67,15.67,0,0,1-6-5.77,15.94,15.94,0,0,1-2.18-8.32,15.94,15.94,0,0,1,2.15-8.27,15.65,15.65,0,0,1,5.86-5.76,16.5,16.5,0,0,1,8.32-2.12,15.47,15.47,0,0,1,7.82,2,13.91,13.91,0,0,1,5.38,5.51,16.46,16.46,0,0,1,1.92,8c0,.56,0,1.13-.06,1.7a12,12,0,0,1-.32,1.89l-26.07.07V39.47l22.16-.07L150.81,42a11.12,11.12,0,0,0-1-4.61,6.45,6.45,0,0,0-2.5-2.82,7.61,7.61,0,0,0-4-1A8.43,8.43,0,0,0,139,34.73a7.23,7.23,0,0,0-2.85,3.11,10.69,10.69,0,0,0-1,4.77,10.63,10.63,0,0,0,1.06,4.9,7.28,7.28,0,0,0,3,3.17,9.38,9.38,0,0,0,4.61,1.09,11.5,11.5,0,0,0,4.29-.77,8.29,8.29,0,0,0,3.34-2.44l5,5a15.32,15.32,0,0,1-5.57,4A18,18,0,0,1,144,58.94Z"/><path class="cls-3" d="M163.81,58.24V27.3h8.39V58.24Zm20.12,0V40a5.36,5.36,0,0,0-1.67-4.19,6,6,0,0,0-4.16-1.51,6.41,6.41,0,0,0-3,.67,5.32,5.32,0,0,0-2.12,2,5.82,5.82,0,0,0-.8,3.13l-3.26-1.66a11.84,11.84,0,0,1,1.57-6.21,10.76,10.76,0,0,1,4.26-4.07,12.67,12.67,0,0,1,6.08-1.44,11.91,11.91,0,0,1,5.83,1.44,10.74,10.74,0,0,1,4.16,4,11.87,11.87,0,0,1,1.54,6.19V58.24Zm20.17,0V40a5.35,5.35,0,0,0-1.66-4.19,5.87,5.87,0,0,0-4.1-1.51,6.55,6.55,0,0,0-3,.67,5.32,5.32,0,0,0-2.12,2,5.82,5.82,0,0,0-.8,3.13l-4.8-1.21a12.82,12.82,0,0,1,1.95-6.47,12.39,12.39,0,0,1,4.58-4.2,14,14,0,0,1,12.49-.06A11,11,0,0,1,211,32.23a12.22,12.22,0,0,1,1.63,6.47V58.24Z"/><path class="cls-3" d="M223.58,22.3a4.55,4.55,0,0,1-3.4-1.38,4.67,4.67,0,0,1-1.34-3.42,4.72,4.72,0,0,1,1.34-3.4,4.5,4.5,0,0,1,3.4-1.41A4.46,4.46,0,0,1,227,14.1a4.79,4.79,0,0,1,1.32,3.4A4.74,4.74,0,0,1,227,20.92,4.51,4.51,0,0,1,223.58,22.3Zm-4.3,35.94V27.3h8.52V58.24Z"/><path class="cls-3" d="M235.23,58.24V27.3h8.4V58.24Zm20.76,0V40.49a5.93,5.93,0,0,0-6.15-6.21,6.56,6.56,0,0,0-3.2.77,5.47,5.47,0,0,0-2.21,2.21,6.48,6.48,0,0,0-.8,3.23l-3.27-1.73a12.39,12.39,0,0,1,1.57-6.31,11.2,11.2,0,0,1,4.35-4.26,12.9,12.9,0,0,1,6.31-1.53,11,11,0,0,1,6.12,1.7,12.49,12.49,0,0,1,4.2,4.41,11.67,11.67,0,0,1,1.53,5.8V58.24Z"/><path class="cls-3" d="M284.24,58.88a14.07,14.07,0,0,1-7.66-2.12A15.39,15.39,0,0,1,271.23,51a16.94,16.94,0,0,1-2-8.2,17,17,0,0,1,2-8.26,15.34,15.34,0,0,1,5.35-5.77,14.06,14.06,0,0,1,7.66-2.11,13.13,13.13,0,0,1,6,1.37,11.57,11.57,0,0,1,4.32,3.75,10,10,0,0,1,1.76,5.38v11a10.56,10.56,0,0,1-1.73,5.51,11,11,0,0,1-4.29,3.81A13.12,13.12,0,0,1,284.24,58.88Zm1.47-7.75a7.8,7.8,0,0,0,4.1-1.09,7.68,7.68,0,0,0,2.79-2.95,9,9,0,0,0,1-4.29,9.14,9.14,0,0,0-1-4.36,7.65,7.65,0,0,0-2.76-2.94,7.53,7.53,0,0,0-4.07-1.09,7.93,7.93,0,0,0-4.13,1.05,7.39,7.39,0,0,0-2.75,2.95,9.07,9.07,0,0,0-1,4.33,9.19,9.19,0,0,0,1,4.38,7.26,7.26,0,0,0,2.78,3A7.86,7.86,0,0,0,285.71,51.13Zm15.82,7.11h-8.45V49.91l1.4-7.56L293,34.86V11.92h8.52Z"/><path class="cls-3" d="M323.63,58.94A17.57,17.57,0,0,1,315,56.83a15.67,15.67,0,0,1-6-5.77,15.94,15.94,0,0,1-2.18-8.32,16,16,0,0,1,2.15-8.27,15.65,15.65,0,0,1,5.86-5.76,16.54,16.54,0,0,1,8.33-2.12,15.43,15.43,0,0,1,7.81,2,13.85,13.85,0,0,1,5.38,5.51,16.46,16.46,0,0,1,1.92,8c0,.56,0,1.13-.06,1.7a11,11,0,0,1-.32,1.89l-26.07.07V39.47l22.16-.07L330.48,42a11.12,11.12,0,0,0-1-4.61A6.49,6.49,0,0,0,327,34.6a7.64,7.64,0,0,0-4-1,8.41,8.41,0,0,0-4.35,1.09,7.17,7.17,0,0,0-2.85,3.11,10.55,10.55,0,0,0-1,4.77,10.76,10.76,0,0,0,1.06,4.9,7.34,7.34,0,0,0,3,3.17,9.42,9.42,0,0,0,4.62,1.09,11.5,11.5,0,0,0,4.29-.77,8.33,8.33,0,0,0,3.33-2.44l5,5a15.24,15.24,0,0,1-5.57,4A17.94,17.94,0,0,1,323.63,58.94Z"/><path class="cls-3" d="M353,58.24,339.39,27.3h9.22l9.8,25.49h-4.55l9.8-25.49h9L359.05,58.24Z"/></g></g></svg>
