<svg xmlns="http://www.w3.org/2000/svg" viewBox="0 0 70.87 70.87"><defs><style>.cls-1{fill:#00b451;}.cls-2{fill:#fff;}</style></defs><g id="Capa_2" data-name="Capa 2"><g id="Capa_1-2" data-name="Capa 1"><rect class="cls-1" width="70.87" height="70.87" rx="6.46"/><path class="cls-2" d="M43.27,21.82v-4a3.48,3.48,0,0,0-3.48-3.48H11a3.48,3.48,0,0,0-3.48,3.48V33.32A3.48,3.48,0,0,0,11,36.8h3.88V25.29a3.46,3.46,0,0,1,3.46-3.47Z"/><path class="cls-2" d="M53,31.75v-4a3.48,3.48,0,0,0-3.48-3.48H20.7a3.48,3.48,0,0,0-3.48,3.48V43.25a3.48,3.48,0,0,0,3.48,3.49h3.88V35.22a3.47,3.47,0,0,1,3.47-3.47Z"/><rect class="cls-2" x="27.06" y="34.23" width="35.79" height="22.48" rx="3.67"/></g></g></svg>